<svg width="80" height="80" viewBox="0 0 80 80" fill="none" xmlns="http://www.w3.org/2000/svg"><g clip-path="url(#clip0)" fill="#61BED9"><path d="M32.6 49.9l-3-1c-1-.3-1.6-1.2-1.6-2.2a2.7 2.7 0 1 1 5.3 0H36c0-2.5-1.7-4.6-4-5.2v-2.8h-2.7v2.8c-2.3.6-4 2.7-4 5.2a5 5 0 0 0 3.5 4.7l3 1c.9.3 1.5 1.2 1.5 2.3a2.7 2.7 0 1 1-5.3 0h-2.7c0 2.4 1.7 4.5 4 5.1v2.9H32v-2.9c2.3-.6 4-2.7 4-5.1a5 5 0 0 0-3.4-4.8z"/><path d="M78.7 29.3h-27a30.7 30.7 0 0 0-10.4-8.2v-5.8l4.8-3.6c.4-.2.6-.6.6-1V1.3C46.7.6 46 0 45.3 0H40c-.3 0-.7.1-1 .4L37.4 2 35.6.4c-.2-.3-.6-.4-1-.4h-8c-.3 0-.6.1-.9.4L24 2 22.3.4c-.3-.3-.6-.4-1-.4H16c-.7 0-1.3.6-1.3 1.3v9.4c0 .4.2.8.5 1l4.8 3.6v5.8A39 39 0 0 0 0 55.9C0 71.2 11.2 80 30.7 80c3.1 0 6.3-.3 9.4-.8.2.5.7.8 1.2.8h37.4c.7 0 1.3-.6 1.3-1.3v-48c0-.8-.6-1.4-1.3-1.4zM17.3 10V2.7h3.5L23 4.9c.5.6 1.3.6 1.9 0l2.2-2.2h7l2.2 2.2c.5.6 1.4.6 1.9 0l2.3-2.2H44V10l-4.4 3.3H21.8L17.3 10zm21.4 6v4h-16v-4h16zM40 62a14.7 14.7 0 1 1 0-22.6V62zm0-31.3V36a17.3 17.3 0 1 0 0 29.2v11.2c-3 .6-6.2.8-9.3.8-8.4 0-28-2-28-21.4 0-12.7 7.6-28.6 20.4-33.2h15.1c3.8 1.4 7.2 3.7 10 6.6h-6.9c-.7 0-1.3.6-1.3 1.4zm37.3 46.6H42.7V42.7h34.6v34.6zm0-37.3H42.7v-8h34.6v8z"/><path d="M52 45.3h-5.3c-.8 0-1.4.6-1.4 1.4V52c0 .7.6 1.3 1.4 1.3H52c.7 0 1.3-.6 1.3-1.3v-5.3c0-.8-.6-1.4-1.3-1.4zm-1.3 5.4H48V48h2.7v2.7zM62.7 45.3h-5.4c-.7 0-1.3.6-1.3 1.4V52c0 .7.6 1.3 1.3 1.3h5.4c.7 0 1.3-.6 1.3-1.3v-5.3c0-.8-.6-1.4-1.3-1.4zm-1.4 5.4h-2.6V48h2.6v2.7zM73.3 45.3H68c-.7 0-1.3.6-1.3 1.4V52c0 .7.6 1.3 1.3 1.3h5.3c.8 0 1.4-.6 1.4-1.3v-5.3c0-.8-.6-1.4-1.4-1.4zM72 50.7h-2.7V48H72v2.7zM52 56h-5.3c-.8 0-1.4.6-1.4 1.3v5.4c0 .7.6 1.3 1.4 1.3H52c.7 0 1.3-.6 1.3-1.3v-5.4c0-.7-.6-1.3-1.3-1.3zm-1.3 5.3H48v-2.6h2.7v2.6zM62.7 56h-5.4c-.7 0-1.3.6-1.3 1.3v5.4c0 .7.6 1.3 1.3 1.3h5.4c.7 0 1.3-.6 1.3-1.3v-5.4c0-.7-.6-1.3-1.3-1.3zm-1.4 5.3h-2.6v-2.6h2.6v2.6zM52 66.7h-5.3c-.8 0-1.4.6-1.4 1.3v5.3c0 .8.6 1.4 1.4 1.4H52c.7 0 1.3-.6 1.3-1.4V68c0-.7-.6-1.3-1.3-1.3zM50.7 72H48v-2.7h2.7V72zM62.7 66.7h-5.4c-.7 0-1.3.6-1.3 1.3v5.3c0 .8.6 1.4 1.3 1.4h5.4c.7 0 1.3-.6 1.3-1.4V68c0-.7-.6-1.3-1.3-1.3zM61.3 72h-2.6v-2.7h2.6V72zM73.3 56H68c-.7 0-1.3.6-1.3 1.3v16c0 .8.6 1.4 1.3 1.4h5.3c.8 0 1.4-.6 1.4-1.4v-16c0-.7-.6-1.3-1.4-1.3zM72 72h-2.7V58.7H72V72zM74.7 34.7H72v2.6h2.7v-2.6zM69.3 34.7h-2.6v2.6h2.6v-2.6zM64 34.7h-2.7v2.6H64v-2.6z"/></g><defs><clipPath id="clip0"><path fill="#fff" d="M0 0h80v80H0z"/></clipPath></defs></svg>