<svg width="80" height="80" viewBox="0 0 80 80" fill="none" xmlns="http://www.w3.org/2000/svg">
<path d="M5 5H40V2.5H3.75C3.41848 2.5 3.10054 2.6317 2.86612 2.86612C2.6317 3.10054 2.5 3.41848 2.5 3.75V76.25C2.5 76.5815 2.6317 76.8995 2.86612 77.1339C3.10054 77.3683 3.41848 77.5 3.75 77.5H26.25V75H5V5Z" fill="#61BED9"/>
<path d="M15 27.5H12.5C11.8372 27.4992 11.2017 27.2356 10.7331 26.7669C10.2644 26.2983 10.0008 25.6628 10 25H7.5C7.5015 26.3256 8.02877 27.5965 8.96613 28.5339C9.90348 29.4712 11.1744 29.9985 12.5 30V32.5H15V30C16.3261 30 17.5979 29.4732 18.5355 28.5355C19.4732 27.5979 20 26.3261 20 25C20 23.6739 19.4732 22.4021 18.5355 21.4645C17.5979 20.5268 16.3261 20 15 20H12.5C11.837 20 11.2011 19.7366 10.7322 19.2678C10.2634 18.7989 10 18.163 10 17.5C10 16.837 10.2634 16.2011 10.7322 15.7322C11.2011 15.2634 11.837 15 12.5 15H15C15.6628 15.0008 16.2983 15.2644 16.7669 15.7331C17.2356 16.2017 17.4992 16.8372 17.5 17.5H20C19.9985 16.1744 19.4712 14.9035 18.5339 13.9661C17.5965 13.0288 16.3256 12.5015 15 12.5V10H12.5V12.5C11.1739 12.5 9.90215 13.0268 8.96447 13.9645C8.02678 14.9021 7.5 16.1739 7.5 17.5C7.5 18.8261 8.02678 20.0979 8.96447 21.0355C9.90215 21.9732 11.1739 22.5 12.5 22.5H15C15.663 22.5 16.2989 22.7634 16.7678 23.2322C17.2366 23.7011 17.5 24.337 17.5 25C17.5 25.663 17.2366 26.2989 16.7678 26.7678C16.2989 27.2366 15.663 27.5 15 27.5Z" fill="#61BED9"/>
<path d="M32.5 11.25H25V13.75H32.5V11.25Z" fill="#61BED9"/>
<path d="M40 11.25H35V13.75H40V11.25Z" fill="#61BED9"/>
<path d="M37.5 17.5H22.5V20H37.5V17.5Z" fill="#61BED9"/>
<path d="M35 23.75H22.5V26.25H35V23.75Z" fill="#61BED9"/>
<path d="M32.5 30H22.5V32.5H32.5V30Z" fill="#61BED9"/>
<path d="M33.75 58.75C34.0815 58.75 34.3995 58.6183 34.6339 58.3839C34.8683 58.1495 35 57.8315 35 57.5V38.75C35 38.4185 34.8683 38.1005 34.6339 37.8661C34.3995 37.6317 34.0815 37.5 33.75 37.5H28.75C28.4185 37.5 28.1005 37.6317 27.8661 37.8661C27.6317 38.1005 27.5 38.4185 27.5 38.75V42.5H23.75C23.4185 42.5 23.1005 42.6317 22.8661 42.8661C22.6317 43.1005 22.5 43.4185 22.5 43.75V48.75H20V46.25C20 45.9185 19.8683 45.6005 19.6339 45.3661C19.3995 45.1317 19.0815 45 18.75 45H13.75C13.4185 45 13.1005 45.1317 12.8661 45.3661C12.6317 45.6005 12.5 45.9185 12.5 46.25V48.75H8.75C8.41848 48.75 8.10054 48.8817 7.86612 49.1161C7.6317 49.3505 7.5 49.6685 7.5 50V62.5C7.5 62.8315 7.6317 63.1495 7.86612 63.3839C8.10054 63.6183 8.41848 63.75 8.75 63.75H31.25V61.25H10V58.75H33.75ZM30 40H32.5V56.25H30V40ZM25 45H27.5V56.25H25V45ZM20 51.25H22.5V56.25H20V51.25ZM15 47.5H17.5V56.25H15V47.5ZM10 51.25H12.5V56.25H10V51.25Z" fill="#61BED9"/>
<path d="M77.6866 12.3354C77.8405 11.1042 77.7308 9.85448 77.3648 8.66899C76.9988 7.48351 76.3849 6.38941 75.5638 5.45928C74.7427 4.52916 73.7332 3.78429 72.6023 3.27409C71.4713 2.76388 70.2448 2.50002 69.0041 2.5H46.875C45.8333 2.49991 44.8258 2.87151 44.0337 3.54796C43.2416 4.22441 42.7169 5.16131 42.5539 6.19013C42.3909 7.21895 42.6004 8.27217 43.1446 9.16033C43.6889 10.0485 44.5322 10.7133 45.5229 11.0352L37.6494 25.6573C37.5468 25.8478 37.4955 26.0616 37.5003 26.2778C37.5051 26.494 37.5659 26.7053 37.6768 26.891C37.7877 27.0767 37.9449 27.2304 38.133 27.3371C38.3211 27.4439 38.5337 27.5 38.75 27.5H43.75V42.5C43.75 42.8315 43.8817 43.1495 44.1161 43.3839C44.3505 43.6183 44.6685 43.75 45 43.75H56.25V46.8311L41.0091 56.9916C37.5827 59.2677 34.7056 62.2777 32.5864 65.8033C30.4671 69.3289 29.1588 73.2819 28.7562 77.3756L31.2438 77.6244C31.6102 73.8984 32.801 70.3006 34.7299 67.0917C36.6587 63.8829 39.2773 61.1433 42.3959 59.0717L45.4158 57.0583C41.4892 63.3124 38.4239 70.0674 36.3027 77.1408L38.6973 77.8592C41.09 69.8794 44.7196 62.3243 49.4538 55.4694L49.9615 57.5L45.0373 77.1968L47.4627 77.8032L52.1353 59.1128L53.6885 59.6305L52.5027 77.4168L54.9972 77.5832L56.216 59.3018L61.4679 54.0499L63.2876 56.1729C60.5587 61.9485 58.4473 67.9962 56.9887 74.2152L56.2833 77.2138L58.7167 77.7863L59.4222 74.7878C62.1351 63.1926 67.1771 52.2702 74.242 42.684L75 42.8946V67.9774L65.691 72.632C65.5325 72.7112 65.3926 72.8233 65.2807 72.9607C65.1688 73.0982 65.0874 73.2579 65.0419 73.4292C64.9964 73.6005 64.9878 73.7795 65.0168 73.9543C65.0458 74.1292 65.1116 74.2959 65.21 74.4434L67.71 78.1934L69.79 76.8066L68.0755 74.2348L76.809 69.868C77.0166 69.7642 77.1913 69.6046 77.3133 69.4072C77.4354 69.2097 77.5 68.9821 77.5 68.75V41.9444C77.5 41.6712 77.4105 41.4055 77.2451 41.188C77.0798 40.9705 76.8478 40.8132 76.5845 40.7401L75 40.2999V33.8275L77.6866 12.3354ZM46.875 5H69.0041C69.8903 5.00003 70.7664 5.18852 71.5742 5.55296C72.382 5.91739 73.1031 6.44945 73.6896 7.11382C74.2761 7.7782 74.7146 8.5597 74.976 9.40647C75.2374 10.2532 75.3158 11.1459 75.2059 12.0253L72.8668 30.7377L68.9836 26.0777L71.118 21.8091C71.1953 21.6544 71.2397 21.4854 71.2484 21.3127C71.2571 21.1401 71.2298 20.9674 71.1684 20.8058C71.1069 20.6442 71.0126 20.4971 70.8914 20.3738C70.7702 20.2505 70.6248 20.1536 70.4642 20.0894L64.2142 17.5894C63.9692 17.4913 63.6993 17.4733 63.4434 17.538C63.1875 17.6028 62.9587 17.7469 62.7898 17.9498L58.75 22.7974V10C58.75 9.66848 58.6183 9.35054 58.3839 9.11612C58.1495 8.8817 57.8315 8.75 57.5 8.75H47.5C47.2804 8.75029 47.0649 8.80849 46.875 8.91872V8.75C46.3777 8.75 45.9008 8.55246 45.5492 8.20083C45.1975 7.84919 45 7.37228 45 6.875C45 6.37772 45.1975 5.90081 45.5492 5.54917C45.9008 5.19754 46.3777 5 46.875 5ZM46.25 41.25V26.25C46.25 25.9185 46.1183 25.6005 45.8839 25.3661C45.6495 25.1317 45.3315 25 45 25H40.8427L48.2466 11.25H56.25V26.25C56.25 26.5069 56.3291 26.7576 56.4766 26.9679C56.6241 27.1782 56.8329 27.3379 57.0744 27.4254C57.316 27.5128 57.5786 27.5237 57.8266 27.4566C58.0745 27.3895 58.2958 27.2475 58.4602 27.0502L64.1289 20.2478L68.2745 21.9061L66.382 25.6909C66.2733 25.9083 66.2303 26.1526 66.2583 26.3941C66.2864 26.6355 66.3842 26.8635 66.5398 27.0502L72.5 34.2026V40.8378C71.1873 42.6046 69.9436 44.4087 68.769 46.25H58.75V43.0178L65.8839 35.8839L64.1161 34.1161L56.9822 41.25H46.25ZM54.6624 57.3198L52.2962 56.5311L51.4263 53.0514L57.2717 49.1544L59.8361 52.1462L54.6624 57.3198ZM60.2178 48.75H67.2333C66.2645 50.3839 65.3494 52.0444 64.4878 53.7317L60.2178 48.75Z" fill="#61BED9"/>
<path d="M51.25 17.5H48.75C48.4185 17.5 48.1005 17.6317 47.8661 17.8661C47.6317 18.1005 47.5 18.4185 47.5 18.75C47.5 19.0815 47.6317 19.3995 47.8661 19.6339C48.1005 19.8683 48.4185 20 48.75 20H51.25C51.5815 20 51.8995 19.8683 52.1339 19.6339C52.3683 19.3995 52.5 19.0815 52.5 18.75C52.5 18.4185 52.3683 18.1005 52.1339 17.8661C51.8995 17.6317 51.5815 17.5 51.25 17.5Z" fill="#61BED9"/>
</svg>
