<svg width="80" height="80" viewBox="0 0 80 80" fill="none" xmlns="http://www.w3.org/2000/svg"><g clip-path="url(#clip0)" fill="#61BED9"><path d="M31 19.5c-5 0-9 4-9 9v6.7c-1.6.6-2.6 2-2.6 3.7v15.5c0 2 1.7 3.8 3.8 3.8h15.5c2.1 0 3.9-1.7 3.9-3.8V38.9c0-1.7-1.1-3.1-2.6-3.7v-6.6c0-5-4-9-9-9zm0 2.6c3.5 0 6.4 2.9 6.4 6.5V35H24.5v-6.4c0-3.6 3-6.5 6.5-6.5zm9 32.3c0 .7-.6 1.2-1.3 1.2H23.2c-.7 0-1.3-.5-1.3-1.2V38.9c0-.7.6-1.3 1.3-1.3h15.5c.7 0 1.3.6 1.3 1.3v15.5z"/><path d="M31 40.2a3.9 3.9 0 1 0-1.3 7.5V53h2.6v-5.4a3.9 3.9 0 0 0-1.3-7.5zm0 5.1a1.3 1.3 0 0 1 0-2.6 1.3 1.3 0 0 1 0 2.6z"/><path d="M56.8 40.2c0-6.4-2.4-12.5-6.7-17.3l-1.9 1.7a23.2 23.2 0 0 1-32.8 32.8l-1.7 2a25.7 25.7 0 0 0 43-19.2zM48.2 21a25.7 25.7 0 0 0-36.4 36.4l2-1.7a23.2 23.2 0 0 1 32.7-32.8l1.7-1.9zM59.4 38.9H80v2.6H59.4v-2.6z"/><path d="M80 10.5V7.9h-2.6V2.7h-2.6V8h-2.5V.2h-2.6v7.7H67V5.3h-2.6V8H62V.2h-2.5v7.7h-2.6V5.3h-2.6V8h-2.6V2.7H49V8h-1.9L43.8 12a31.1 31.1 0 0 0-36 48.8A31 31 0 0 0 44 68.3l3.1 3.9h2v5.1h2.5v-5.1h2.6v2.5h2.6v-2.5h2.6v7.7h2.5v-7.7h2.6v2.5h2.6v-2.5h2.6v7.7h2.6v-7.7h2.5v5.1h2.6v-5.1H80v-2.6H48.4l-2-2.5c2.6-1.5 5-3.5 7.2-5.7l4 3h11a3.9 3.9 0 1 0 0-2.6H58.5l-3.3-2.4c1.9-2.3 3.4-5 4.6-7.9.5-1.4 2-2.3 3.5-2.3h9.2a3.9 3.9 0 1 0 0-2.6h-9.2c-2.6 0-5 1.6-6 4A28.2 28.2 0 0 1 9.9 59a28.5 28.5 0 0 1 17.5-47c12.9-1.7 25.3 5.5 30 17.6 1 2.4 3.4 4 6 4h9.2a3.9 3.9 0 1 0 0-2.6h-9.2c-1.6 0-3-1-3.6-2.4-1.1-2.9-2.7-5.6-4.6-8l3.4-2.5h10.1a3.9 3.9 0 1 0 0-2.6h-11l-4.2 3.2a31 31 0 0 0-7.2-5.6l2.2-2.7H80zm-7.7 51.3a1.3 1.3 0 1 1 0 2.6 1.3 1.3 0 0 1 0-2.6zM76 46.6a1.3 1.3 0 1 1 0 2.6 1.3 1.3 0 0 1 0-2.6zm0-15.5a1.3 1.3 0 1 1 0 2.6 1.3 1.3 0 0 1 0-2.6zm-3.8-15.5a1.3 1.3 0 1 1 0 2.6 1.3 1.3 0 0 1 0-2.6z"/><path d="M63.2 20.8h2.6v2.6h-2.6v-2.6zM65.8 26h2.6v2.6h-2.6V26zM63.2 57h2.6v2.5h-2.6V57zM65.8 51.8h2.6v2.6h-2.6v-2.6z"/></g><defs><clipPath id="clip0"><path fill="#fff" d="M0 0h80v80H0z"/></clipPath></defs></svg>